<?xml version="1.0" encoding="utf-8"?>
<!-- Generator: Adobe Illustrator 24.2.0, SVG Export Plug-In . SVG Version: 6.00 Build 0)  -->
<svg version="1.1" id="Слой_1" xmlns="http://www.w3.org/2000/svg" xmlns:xlink="http://www.w3.org/1999/xlink" x="0px" y="0px"
	 viewBox="0 0 3000 2000" style="enable-background:new 0 0 3000 2000;" xml:space="preserve">
<style type="text/css">
	.st0{fill:#FFD35B;}
	.st1{fill:#D5E5FB;}
	.st2{fill:#E2EEFD;}
	.st3{fill:#B5CFFC;}
	.st4{fill:#FFFFFF;}
	.st5{fill:#8CB4F4;}
	.st6{fill:#F8FCFF;}
	.st7{fill:#F4A269;}
	.st8{fill:#6692D3;}
	.st9{fill:#9DB0F4;}
	.st10{fill:#F99746;}
	.st11{fill:#163560;}
	.st12{fill:#233862;}
	.st13{fill:#FFB27D;}
	.st14{fill:#E8945B;}
	.st15{fill:#EBF3FA;}
	.st16{fill:#2B478B;}
	.st17{fill:#ED7D2B;}
	.st18{fill:#17467F;}
	.st19{fill:#0C2442;}
	.st20{fill:#ADC8FE;}
	.st21{fill:#AEC3FF;}
	.st22{fill:#ED975D;}
	.st23{fill:#1C468A;}
	.st24{fill:#B64C41;}
	.st25{fill:#ED985F;}
	.st26{fill:#D35C2B;}
	.st27{fill:#CB7D45;}
	.st28{fill:#ECF3FE;}
	.st29{fill:#E58638;}
	.st30{fill:#D36C26;}
	.st31{fill:#D37129;}
	.st32{opacity:0.4;fill:#D86713;}
	.st33{fill:#D86713;}
</style>
<g>
	<rect class="st0" width="3000" height="2000"/>
	<g>
		<path class="st1" d="M3000,745.46v861.85l-618.1,2.25v-4.25l-1166.13,4.25v-4.08l-1117,4.08H0V886.28h98.61V725.26h190.83v136.68
			h58.29V609.17h12.66v-17.68h2.28v17.68h46.02v-17.68h2.28v17.68h65.18v-17.68h2.28v17.68h41.01v-17.68h2.28v17.68h16.83v235.95
			h64.41v-38.16l75.98,0.35v-61.85h15.29v-12.24h2.02v12.24h58.67v0.01h11.73v-12.25h2.02v12.25h14.15v122.98h90.45v45.26h50.27
			v-26.28h46.64V783.09h23.24v-48.67h3.52v48.67h55.74v-91.23h5.47v91.23H1095v-1.26h-0.05v-11.58h0.05v-10.96h-0.05v-18.23h0.05
			v-11.65h-0.05v-18.23h0.05v-11.65h-0.05v-18.23h0.05v-12.58h-0.05v-18.23h0.05v-16.02h-0.05v-18.23h0.05v-12.08h10.99v-13.65h1.76
			v13.65h81.38v-13.65h1.75v13.65h14.86v95.37l10.45,0.07v-0.07h-0.08v-18.23h0.08v-12.58h-0.08v-18.23h0.08v-12.54h-0.08v-18.23
			h0.08v-0.05h98.69v0.05h16.97c0.87,0.49,1.75,0.96,2.63,1.45v104.09h72.14v136.68h58.27V609.17h12.68v-17.68h2.28v17.68h46.02
			v-17.68h2.28v17.68h65.17v-17.68h2.27v17.68h41.01v-17.68h2.28v17.68h16.85v235.95h64.41v-38.16l75.98,0.35v-61.85h15.29v-12.24
			h2.02v12.24h58.66v0.01h11.72v-12.25h2.02v12.25h14.15v122.98h90.46v45.26h50.28v-26.28h46.62V783.09h23.25v-48.67h3.52v48.67
			h55.72v-91.23h5.48v91.23h36.86v-1.26h-0.06v-11.58h0.06v-10.96h-0.06v-18.23h0.06v-11.65h-0.06v-18.23h0.06v-11.65h-0.06v-18.23
			h0.06v-12.58h-0.06v-18.23h0.06v-16.02h-0.06v-18.23h0.06v-12.08h10.98v-13.65h1.76v13.65h81.37v-13.65h1.76v13.65h14.85v95.37
			l10.46,0.07v-0.07h-0.09v-18.23h0.09v-12.58h-0.09v-18.23h0.09v-12.54h-0.09v-18.23h0.09v-0.05h98.7v0.05h16.95
			c0.88,0.49,1.75,0.96,2.63,1.45v104.09h121.1v136.69h58.28V609.17h12.67v-17.68h2.28v17.68H2692v-17.68h2.27v17.68h65.18v-17.68
			h2.28v17.68h60.13v235.96h64.41v-38.18l75.97,0.35v-61.85h15.29v-12.24h2.02v12.24H3000z"/>
		<g>
			<rect x="1510.17" y="609.17" class="st2" width="145.61" height="40"/>
			<rect x="1510.17" y="670.73" class="st2" width="145.61" height="40"/>
			<rect x="1510.17" y="733.58" class="st2" width="145.61" height="40"/>
			<rect x="1510.17" y="797.42" class="st2" width="145.61" height="40"/>
			<rect x="1510.17" y="859.03" class="st2" width="145.61" height="40"/>
			<g>
				<rect x="2212.38" y="604.16" class="st2" width="67.94" height="24.29"/>
				<rect x="2212.38" y="641.55" class="st2" width="67.94" height="24.29"/>
				<rect x="2212.38" y="679.72" class="st2" width="67.94" height="24.29"/>
				<rect x="2212.38" y="718.49" class="st2" width="67.94" height="24.29"/>
				<rect x="2212.38" y="755.9" class="st2" width="67.94" height="24.29"/>
			</g>
			<g>
				<rect x="2212.38" y="797.08" class="st2" width="67.94" height="24.29"/>
				<rect x="2212.38" y="834.47" class="st2" width="67.94" height="24.29"/>
				<rect x="2212.38" y="872.63" class="st2" width="67.94" height="24.29"/>
				<rect x="2212.38" y="911.41" class="st2" width="67.94" height="24.29"/>
				<rect x="2212.38" y="948.82" class="st2" width="67.94" height="24.29"/>
			</g>
			<g>
				<rect x="2333.22" y="620.09" class="st2" width="72.8" height="24.29"/>
				<rect x="2333.22" y="657.48" class="st2" width="72.8" height="24.29"/>
				<rect x="2333.22" y="695.65" class="st2" width="72.8" height="24.29"/>
				<rect x="2333.22" y="734.42" class="st2" width="72.8" height="24.29"/>
				<rect x="2333.22" y="771.83" class="st2" width="72.8" height="24.29"/>
			</g>
			<g>
				<rect x="2333.22" y="810.84" class="st2" width="72.8" height="24.29"/>
				<rect x="2333.22" y="848.22" class="st2" width="72.8" height="24.29"/>
				<rect x="2333.22" y="886.39" class="st2" width="72.8" height="24.29"/>
				<rect x="2333.22" y="925.16" class="st2" width="72.8" height="24.29"/>
				<rect x="2333.22" y="962.58" class="st2" width="72.8" height="24.29"/>
			</g>
			<g>
				<rect x="2333.22" y="1005.48" class="st2" width="72.8" height="24.29"/>
				<rect x="2333.22" y="1042.87" class="st2" width="72.8" height="24.29"/>
				<rect x="2333.22" y="1081.04" class="st2" width="72.8" height="24.29"/>
				<rect x="2333.22" y="1119.81" class="st2" width="72.8" height="24.29"/>
				<rect x="2333.22" y="1157.22" class="st2" width="72.8" height="24.29"/>
			</g>
			<rect x="2689.3" y="609.17" class="st2" width="132.56" height="40"/>
			<rect x="2689.3" y="670.73" class="st2" width="132.56" height="40"/>
			<rect x="2689.3" y="733.58" class="st2" width="132.56" height="40"/>
			<rect x="2689.3" y="797.42" class="st2" width="132.56" height="40"/>
			<rect x="2689.3" y="859.03" class="st2" width="132.56" height="40"/>
			<rect x="347.73" y="609.17" class="st2" width="141.58" height="40"/>
			<rect x="347.73" y="669.42" class="st2" width="141.58" height="40"/>
			<rect x="347.73" y="732.27" class="st2" width="141.58" height="40"/>
			<rect x="347.73" y="796.11" class="st2" width="141.58" height="40"/>
			<rect x="347.73" y="857.72" class="st2" width="141.58" height="40"/>
			<g>
				<rect x="1094.33" y="604.16" class="st2" width="72.8" height="24.29"/>
				<rect x="1094.33" y="641.55" class="st2" width="72.8" height="24.29"/>
				<rect x="1094.33" y="679.72" class="st2" width="72.8" height="24.29"/>
				<rect x="1094.33" y="718.49" class="st2" width="72.8" height="24.29"/>
				<rect x="1094.33" y="755.9" class="st2" width="72.8" height="24.29"/>
			</g>
			<g>
				<rect x="1094.33" y="797.08" class="st2" width="72.8" height="24.29"/>
				<rect x="1094.33" y="834.47" class="st2" width="72.8" height="24.29"/>
				<rect x="1094.33" y="872.63" class="st2" width="72.8" height="24.29"/>
				<rect x="1094.33" y="911.41" class="st2" width="72.8" height="24.29"/>
				<rect x="1094.33" y="948.82" class="st2" width="72.8" height="24.29"/>
			</g>
			<g>
				<rect x="1217.61" y="620.09" class="st2" width="82.74" height="24.29"/>
				<rect x="1217.61" y="657.48" class="st2" width="82.74" height="24.29"/>
				<rect x="1217.61" y="695.65" class="st2" width="82.74" height="24.29"/>
				<rect x="1217.61" y="734.42" class="st2" width="82.74" height="24.29"/>
				<rect x="1217.61" y="771.83" class="st2" width="82.74" height="24.29"/>
			</g>
			<g>
				<rect x="1217.61" y="810.84" class="st2" width="82.74" height="24.29"/>
				<rect x="1217.61" y="848.22" class="st2" width="82.74" height="24.29"/>
				<rect x="1217.61" y="886.39" class="st2" width="82.74" height="24.29"/>
				<rect x="1217.61" y="925.16" class="st2" width="82.74" height="24.29"/>
				<rect x="1217.61" y="962.58" class="st2" width="82.74" height="24.29"/>
			</g>
			<g>
				<rect x="1217.61" y="1005.48" class="st2" width="82.74" height="24.29"/>
				<rect x="1217.61" y="1042.87" class="st2" width="82.74" height="24.29"/>
				<rect x="1217.61" y="1081.04" class="st2" width="82.74" height="24.29"/>
				<rect x="1217.61" y="1119.81" class="st2" width="82.74" height="24.29"/>
				<rect x="1217.61" y="1157.22" class="st2" width="82.74" height="24.29"/>
			</g>
		</g>
	</g>
	<rect y="1440.02" class="st3" width="3000" height="559.98"/>
	<g>
		<polygon class="st4" points="1596.26,1883.73 1364.73,1883.73 1407.85,1537.43 1570.84,1537.43 		"/>
		<polygon class="st4" points="1193.92,1883.73 962.39,1883.73 1147.29,1537.43 1310.28,1537.43 		"/>
		<polygon class="st4" points="787.18,1883.73 555.65,1883.73 865.71,1537.43 1028.71,1537.43 		"/>
		<polygon class="st4" points="379.36,1883.73 147.83,1883.73 585.22,1537.43 748.21,1537.43 		"/>
		<polygon class="st4" points="1774.66,1883.73 2006.19,1883.73 1821.29,1537.43 1658.29,1537.43 		"/>
		<polygon class="st4" points="2181.4,1883.73 2412.92,1883.73 2102.87,1537.43 1939.87,1537.43 		"/>
		<polygon class="st4" points="2589.22,1883.73 2820.75,1883.73 2383.36,1537.43 2220.37,1537.43 		"/>
	</g>
	<path class="st5" d="M545.93,1439.21L0,1440.9v-119.74c22,0.67,44.79,4.49,64.21,14.33c60.37,30.61,52.46,71.33,127.23,56.4
		c74.75-14.94,136.43-21.18,169.92,0c33.48,21.19,58.05,12.76,99.71,12.62C495.59,1404.41,545.93,1408.36,545.93,1439.21z"/>
	<path class="st5" d="M145.72,787.88c-6.31,56.35-52.69,42.31-99.69,70.99c-2.23,1.43-4.67,3.06-7.12,4.69
		C27.13,871.98,13.63,877.85,0,881.88V670.54c37.92,4.78,78.8,25.8,107.68,51.02C132.09,743.12,147.96,767.53,145.72,787.88z"/>
	<path class="st3" d="M251.04,1006.75c-9.76,5.65-21.25,9.24-33.75,10.11c-54.83,3.42-73.85,23.8-118.21,66.98
		c-28.34,27.52-69.47,29.36-99.08,29.05V809.01c12.48,8.5,25.38,18.16,38.77,27.08c30.16,20.22,62.88,36.67,98.69,27.93
		c35.97-8.73,63.73-8.23,85.49-1.2c27.75,8.73,45.92,27.75,58.93,51.05C299.86,945.91,284.27,987.72,251.04,1006.75z"/>
	<path class="st6" d="M409.92,150.58c0,0,41.57-58.77,140.99-52.24c0,0,144.33-97.96,298.25-13.06c0,0,163.61-21.04,284.78,18.21
		c80.78,26.17,107.47,53.62,107.47,53.62L409.92,150.58z"/>
	<path class="st6" d="M3000,419.86v123.29l-1274.58-8.94c0,0,82.36-103.94,279.27-92.38c0,0,285.9-173.22,590.75-23.1
		C2595.45,418.73,2797.06,395.58,3000,419.86z"/>
	<path class="st6" d="M1870.68,288.34c0-25.46,20.64-46.09,46.09-46.09s46.08,20.63,46.08,46.09c0,25.45-20.63,46.09-46.08,46.09
		S1870.68,313.8,1870.68,288.34z"/>
	<path class="st6" d="M803.8,394.68c0,0,32.33-37.95,109.63-33.73c0,0,112.23-63.25,231.91-8.43c0,0,127.22-13.58,221.43,11.76
		c62.82,16.9,83.56,34.62,83.56,34.62L803.8,394.68z"/>
	<g>
		<path class="st7" d="M1563.14,1168.53c0,0-12.64,12.64-14.53,16.82c-1.9,4.18-4.62,14.65,4.81,15.49
			c9.43,0.84,13.24-0.59,14.56-5.09c1.33-4.51,3.99-19.51,3.99-19.51L1563.14,1168.53z"/>
		<g>
			<g>
				<path class="st8" d="M1531.66,1236.72c-0.71-0.15-1.28-0.74-1.36-1.5c-0.12-1.07-2.72-26.65,9.03-40.14
					c4.43-5.1,10.34-7.79,17.54-8.01c20.38-0.62,23.21,17.87,25.73,34.18c1.47,9.52,2.85,18.52,7.16,24
					c0.58,0.74,0.46,1.81-0.28,2.4c-0.74,0.58-1.82,0.45-2.4-0.28c-4.87-6.18-6.39-16.05-7.86-25.59
					c-2.51-16.36-4.89-31.81-22.25-31.28c-6.21,0.18-11.27,2.48-15.06,6.82c-10.77,12.35-8.24,37.29-8.21,37.54
					c0.1,0.94-0.58,1.78-1.51,1.89C1532,1236.76,1531.83,1236.75,1531.66,1236.72z"/>
			</g>
			<polygon class="st9" points="1462.82,1228.53 1448.01,1378.62 1476.21,1380.13 1489.02,1390.48 1482.18,1229.08 			"/>
			<polygon class="st10" points="1482.18,1229.08 1650.04,1229.08 1670.7,1385.8 1489.02,1390.48 			"/>
			<g>
				<path class="st5" d="M1543.14,1241.43c-0.72,0-1.4-0.47-1.62-1.2c-0.33-1.04-7.89-25.62,0.99-41.14
					c3.35-5.86,8.61-9.66,15.63-11.28c19.86-4.6,26.27,12.97,31.92,28.48c3.31,9.06,6.42,17.61,11.73,22.13
					c0.72,0.62,0.8,1.69,0.19,2.41c-0.61,0.72-1.69,0.8-2.41,0.19c-5.99-5.1-9.41-14.48-12.73-23.56
					c-5.67-15.55-11.02-30.23-27.94-26.32c-6.06,1.4-10.57,4.65-13.43,9.64c-8.14,14.23-0.77,38.18-0.7,38.42
					c0.28,0.9-0.22,1.86-1.12,2.14C1543.48,1241.4,1543.31,1241.43,1543.14,1241.43z"/>
			</g>
			<polygon class="st9" points="1476.21,1380.13 1476.21,1229.08 1482.18,1229.08 1489.02,1390.48 			"/>
		</g>
		<path class="st11" d="M1647.68,804.06c0,0,23.6-2.61,44.6,10.93c21.01,13.55,21.48,62.92,39.67,71.16
			c18.2,8.25,45.31,20.99,42.58,46.08c-2.74,25.08-11.35,33.12,0.29,48.05c11.63,14.92-8.49,52.26-42.05,41.06
			c-33.57-11.19-138.2-45.5-148.77-65.19s-5.3-42.74,5.17-61.67C1599.65,875.55,1576.16,808.47,1647.68,804.06z"/>
		<path class="st4" d="M1607.94,951.78c0,0-24.33,6.66-31.28,38.56c-6.96,31.91-0.32,100.19-6.39,121.59
			c-6.08,21.4-13.67,60.51-13.67,60.51s8.57,6.9,17.66,6.46c0,0,46.46-68.04,46.87-86.43
			C1621.53,1074.08,1607.94,951.78,1607.94,951.78z"/>
		<path class="st12" d="M1792.86,1572.62c0,0,14.63,13.36,11.77,22.84c-2.86,9.48-16.06,15.81-17.84,27.41
			c-1.78,11.59-8.93,17.92-15.35,17.92c-6.42,0-30.62,0-30.62,0s-4.73-8.16,6.69-10.62c11.42-2.46,15.72-16.08,15.01-28.74
			c-0.71-12.65,1.08-29.51,1.08-29.51l24.26-5.62L1792.86,1572.62z"/>
		<path class="st12" d="M1669.03,1578.3c0,0,5.26,56.56-1.16,59.72l-82.2-0.17c0,0,0-9.49,13.21-11.6
			c13.2-2.11,36.39-9.83,40.31-27.05C1643.12,1581.98,1669.03,1578.3,1669.03,1578.3z"/>
		<path class="st13" d="M1727.6,1172.52c-16.92-37.93-27.26-48.81-25.29-60.59c1.47-8.76-4.48-163.39-4.48-163.39
			c-2.01-0.62-6.02-1.18-8.23-1.67c-6.93-1.54-12.68-6.41-15.07-13.11c-2.88-8.06-5.17-19.97-5.12-34.89l-2.16,0.43l-36.43,7.21
			c0,0,0.82,11.46,0.85,22.27c0,0.09,0,0.18,0,0.27c0.05,9.38-6.11,17.66-15.12,20.26c-4.6,1.33-8.61,2.46-8.61,2.46
			s-13.37,38.19-15.93,77.43c-2.56,39.24,24.33,56.29-0.21,134.69C1566.77,1243.98,1736.95,1193.48,1727.6,1172.52z"/>
		<path class="st14" d="M1630.82,906.52c0,0,0.82,11.46,0.85,22.27c20.38-0.57,31.16-19.17,35.58-29.48L1630.82,906.52z"/>
		<path class="st13" d="M1624.01,916.75c0,0,48.24,0.79,48.27-29.25c0.03-30.05,6.29-50.18-24.52-51.95
			c-30.79-1.78-36.79,9.68-39.24,19.7C1606.07,865.28,1611.46,915.77,1624.01,916.75z"/>
		<path class="st11" d="M1625.8,834.81c0,0,13.2,35.25,33.48,40.46c20.27,5.21,29.06-0.22,29.06-0.22s-15.55-12.35-18.77-33.91
			C1669.56,841.14,1635.76,818.03,1625.8,834.81z"/>
		<path class="st11" d="M1629.07,837.67c0,0-9.8,3.66-13.83,10.8c-3.94,6.98-7.3,16.24-6.52,27.58c0,0-9.95-23.96,1.23-37.51
			C1621.82,824.17,1629.07,837.67,1629.07,837.67z"/>
		<path class="st15" d="M1634.51,898.11c0,0-3.33,4.38-9.99,4.06c-5.36-0.25-7.43-4.91-7.43-4.91S1626.94,894.9,1634.51,898.11z"/>
		<path class="st4" d="M1721.03,1016.93c0,0-0.18,22.88-1.4,43.6c-0.82,13.74-2.08,26.53-4.05,31.08
			c-4.95,11.42-10.53,13.28-10.53,13.28l-43.15,10.58l-15.18,3.71l-47.85-14.28c0,0-21.8-60.84-13.05-95.09
			c8.75-34.25,22.12-58.03,22.12-58.03s39.06,38.23,89.89-3.24L1721.03,1016.93z"/>
		<path class="st12" d="M1601.91,1114.12c0,0-23.7,73.77-25.22,98.88c-1.52,25.11,45.29,356.76,47.18,368.33
			c1.77,10.91,15.32,17.86,15.32,17.86s6.23,3.67,15.13,1.17c12.33-3.48,16.23-7.65,16.23-7.65s18.45-236.54,7.03-321.03
			c-11.42-84.5-11.54-157.56-11.54-157.56H1601.91z"/>
		<path class="st16" d="M1702.32,1111.93c0,0,36.15,48.5,39.52,81.29c3.37,32.79,5.29,147.95,12.46,179.92
			c7.18,31.96,33.56,93.47,33.56,193.17c0,0-2.75,5.71-11.21,8.75c-2.71,0.98-6.33,1.92-9.85,2.73c-6.98,1.6-14.15-1.81-17.33-8.23
			c-17.83-35.91-74.64-151.72-77.56-175.76c-2.06-17.01-20-129.61-59.13-195.68c-9.39-15.86,5.77-78.95,5.77-78.95L1702.32,1111.93z
			"/>
		<path class="st4" d="M1633.44,898.91c0,0-0.83,3.54-9.64,3c0,0-7.4-0.46-7.17-4.35C1616.62,897.56,1623.8,894.79,1633.44,898.91z"
			/>
		<path class="st12" d="M1598.12,1102.73c0,0,9.51,7.53,28.41,7.91c22.57,0.46,78.51-5.75,78.51-5.75s2.48,6.94,2.38,14.27
			c0,0-68.32,17.23-107.9,2.52C1599.53,1121.68,1594.42,1112.07,1598.12,1102.73z"/>
		<g>
			<path class="st4" d="M1621.12,1130.1c-5.68,0-10.3-5.23-10.3-11.66c0-6.43,4.62-11.66,10.3-11.66c5.68,0,10.3,5.23,10.3,11.66
				C1631.42,1124.87,1626.8,1130.1,1621.12,1130.1z M1621.12,1110.2c-3.8,0-6.89,3.69-6.89,8.24c0,4.54,3.08,8.24,6.89,8.24
				c3.79,0,6.89-3.7,6.89-8.24C1628.01,1113.89,1624.91,1110.2,1621.12,1110.2z"/>
		</g>
		<g>
			<g>
				<polygon class="st17" points="1816.39,1209.19 1713.15,1247.11 1691.89,1189.26 1795.13,1151.33 				"/>
				<path class="st10" d="M1691.89,1189.26c0,0,33.27,20.74,65.13,7.42c31.86-13.32,38.11-45.35,38.11-45.35L1691.89,1189.26z"/>
			</g>
			<g>
				<path class="st18" d="M1707.07,1189.16c-3.26,0.46-6.29-1.82-6.74-5.08c-0.46-3.26,1.82-6.29,5.08-6.75
					c3.26-0.46,6.29,1.82,6.74,5.08C1712.61,1185.68,1710.33,1188.71,1707.07,1189.16z M1705.68,1179.31c-2.17,0.3-3.7,2.33-3.4,4.5
					c0.31,2.17,2.33,3.7,4.51,3.39c2.17-0.3,3.69-2.32,3.39-4.51C1709.88,1180.52,1707.86,1179,1705.68,1179.31z"/>
			</g>
			<g>
				<path class="st19" d="M1703.65,1178.94c-0.2-0.96-20-97.23-26.5-151.99c-3.42-28.76-1.83-49.58,0.11-61.99
					c2.11-13.53,7.25-19.67,7.36-19.95l2.09,0.31c-0.11,0.26-12.97,27.08-6.53,81.26c6.49,54.65,26.27,150.78,26.46,151.75
					L1703.65,1178.94z"/>
			</g>
		</g>
		<path class="st13" d="M1774.43,1195.03c0,0,0.04,8.74,1.7,12.95c1.65,4.21,6.63,9.82,8.28,9.82c1.65,0-1.52-8.78-0.7-8.6
			c0.83,0.17,4.83,14.61,7.73,14.96c2.9,0.35,5.53-16.18,4-22.68c-1.52-6.49-8.07-14.28-8.07-14.28L1774.43,1195.03z"/>
		<path class="st4" d="M1697.83,948.54c0,0,26.68,3.62,41.04,31.92c11.1,21.86,18.71,90.64,26.55,112.3
			c7.5,20.73,17.83,60.79,23.6,92.88c0.45,2.5-0.92,4.96-3.28,5.89l-9.81,3.9c-2.11,0.84-4.53,0.02-5.7-1.93
			c-8.71-14.64-43.1-73.27-55.03-107.19c-4.54-12.89-10.36-24.18-16.14-33.57c-14.05-22.78-17.83-50.42-9.93-76L1697.83,948.54z"/>
		<path class="st7" d="M1558.23,1173.61c0,0-8.76,4.43-10.85,7.37c-2.09,2.95-5.79,6.84-3.51,7.31c2.28,0.48,9.01-4.55,9.01-4.55
			L1558.23,1173.61z"/>
		<path class="st13" d="M1548.65,1192.07c0,0,7.94-5.8,12.88-3.75c4.94,2.07,5.31,9.85,3.8,11.46c-1.52,1.61-13.96,3.41-17.28-0.96
			C1544.72,1194.47,1548.65,1192.07,1548.65,1192.07z"/>
	</g>
	<path class="st1" d="M602.8,1438.94l-115.58,91.21c-76.92,60.7-166.28,92.96-257.54,92.96H0V1440.9L602.8,1438.94z"/>
	<path class="st1" d="M3000,1440.02v204.12h-204.31c-72.31,0-143.71-22.28-208.97-65.22l-211.14-138.91H3000z"/>
	<path class="st20" d="M3000,1263.69c0,0-103.73-13.31-146.19,26.17s-88.62,20.43-155.07,19.59
		c-66.46-0.84-65.64,79.32-104.03,83.47c-38.38,4.15-144.95-3.34-156.03,48.84l561.31,4.02V1263.69z"/>
	<g>
		<path class="st21" d="M116.07,595.05h97.94c10.83,0,19.61-8.78,19.61-19.61V212.46c0-10.83-8.78-19.61-19.61-19.61h-97.94
			c-10.83,0-19.61,8.78-19.61,19.61v362.98C96.46,586.27,105.24,595.05,116.07,595.05z"/>
		<path class="st21" d="M113.75,225.59h269.66c9.57,0,17.32-7.75,17.32-17.32l0,0c0-9.56-7.75-17.32-17.32-17.32H113.75
			c-9.57,0-17.32,7.75-17.32,17.32l0,0C96.44,217.84,104.19,225.59,113.75,225.59z"/>
		<path class="st21" d="M383.44,483.8h263.55c8.14,0,14.73-6.6,14.73-14.73V205.51c0-8.14-6.6-14.74-14.73-14.74H383.44
			c-8.14,0-14.74,6.6-14.74,14.74v263.55C368.7,477.2,375.3,483.8,383.44,483.8z"/>
		<path class="st10" d="M393.78,472.99h242.86c7.5,0,13.58-6.08,13.58-13.58V216.55c0-7.5-6.08-13.58-13.58-13.58H393.78
			c-7.5,0-13.58,6.08-13.58,13.58v242.86C380.2,466.91,386.28,472.99,393.78,472.99z"/>
		<path class="st4" d="M615.76,446.58H415.29c-6.14,0-10.15-6.46-7.42-11.96l99.56-200.47c3.04-6.11,11.74-6.13,14.81-0.04
			l100.91,200.46C625.92,440.09,621.92,446.58,615.76,446.58z"/>
		<g>
			<polygon class="st10" points="563.67,377.4 595.07,432.47 562.71,432.47 539.46,377.28 			"/>
			<polygon class="st10" points="465.63,377.4 434.23,432.47 466.59,432.47 489.84,377.28 			"/>
			<polygon class="st10" points="528.08,432.22 501.22,432.22 504.42,377.4 524.22,377.4 			"/>
		</g>
		<g>
			<path class="st10" d="M502.45,277.63c0-5.24,4.25-9.48,9.48-9.48c5.24,0,9.48,4.25,9.48,9.48c0,5.24-4.24,9.48-9.48,9.48
				C506.69,287.12,502.45,282.87,502.45,277.63z"/>
			<path class="st10" d="M517.18,330.4h-8.77c-4.68,0-8.51-3.83-8.51-8.51V299.4c0-4.68,3.83-8.52,8.51-8.52h8.77
				c4.68,0,8.51,3.83,8.51,8.52v22.49C525.7,326.57,521.87,330.4,517.18,330.4z"/>
			<path class="st10" d="M488.75,367.97l-0.26-0.11c-3.04-1.28-4.47-4.82-3.19-7.86l10.88-25.75c1.28-3.03,4.82-4.47,7.86-3.18
				l0.26,0.11c3.04,1.28,4.47,4.82,3.19,7.85l-10.88,25.75C495.32,367.82,491.79,369.25,488.75,367.97z"/>
			<g>
				<path class="st10" d="M526.97,356.31l-2.18,0.51c-2.69,0.63-5.39-1.06-6.02-3.74l-3.62-15.53c-0.63-2.68,1.06-5.39,3.74-6.02
					l2.19-0.51c2.69-0.62,5.39,1.06,6.02,3.74l3.62,15.53C531.34,352.98,529.66,355.69,526.97,356.31z"/>
				<path class="st10" d="M541.42,364.01l-1.44,1.72c-1.76,2.12-4.94,2.41-7.06,0.64l-12.25-10.21c-2.12-1.76-2.41-4.94-0.64-7.06
					l1.44-1.72c1.76-2.12,4.94-2.4,7.06-0.64l12.25,10.21C542.89,358.71,543.18,361.89,541.42,364.01z"/>
			</g>
			<path class="st10" d="M485.49,315.78l-0.15-0.07c-2.07-1.03-2.93-3.57-1.9-5.65l7.48-15.05c1.03-2.07,3.57-2.93,5.65-1.9
				l0.15,0.07c2.07,1.03,2.93,3.57,1.9,5.65l-7.48,15.05C490.11,315.95,487.56,316.81,485.49,315.78z"/>
			<path class="st10" d="M538.52,316.62l-0.16,0.06c-2.18,0.78-4.6-0.36-5.38-2.55l-5.66-15.82c-0.78-2.18,0.36-4.6,2.54-5.39
				l0.16-0.05c2.18-0.78,4.61,0.36,5.38,2.55l5.66,15.82C541.85,313.41,540.7,315.84,538.52,316.62z"/>
		</g>
		<path class="st9" d="M216.95,390.4c0-29.08-23.57-52.64-52.64-52.64c-29.08,0-52.65,23.57-52.65,52.64
			c0,29.07,23.57,52.64,52.65,52.64C193.38,443.04,216.95,419.47,216.95,390.4z"/>
		<path class="st10" d="M216.95,509.53c0-29.07-23.57-52.64-52.64-52.64c-29.08,0-52.65,23.57-52.65,52.64
			c0,29.07,23.57,52.64,52.65,52.64C193.38,562.17,216.95,538.61,216.95,509.53z"/>
		<g>
			<path class="st4" d="M153.81,476.77c0-4.14,3.36-7.51,7.51-7.51c4.15,0,7.51,3.36,7.51,7.51c0,4.15-3.36,7.51-7.51,7.51
				C157.17,484.28,153.81,480.92,153.81,476.77z"/>
			<path class="st4" d="M165.47,518.55h-6.94c-3.71,0-6.74-3.03-6.74-6.74v-17.81c0-3.71,3.03-6.74,6.74-6.74h6.94
				c3.71,0,6.74,3.03,6.74,6.74v17.81C172.21,515.52,169.18,518.55,165.47,518.55z"/>
			<path class="st4" d="M142.96,548.3l-0.2-0.09c-2.41-1.02-3.54-3.81-2.53-6.22l8.61-20.39c1.02-2.4,3.81-3.54,6.22-2.52l0.2,0.09
				c2.4,1.02,3.54,3.81,2.52,6.22l-8.61,20.39C148.17,548.18,145.37,549.31,142.96,548.3z"/>
			<g>
				<path class="st4" d="M173.22,539.07l-1.73,0.4c-2.13,0.5-4.27-0.83-4.77-2.96l-2.86-12.29c-0.5-2.12,0.84-4.27,2.96-4.76
					l1.73-0.4c2.12-0.5,4.27,0.84,4.76,2.96l2.87,12.3C176.68,536.43,175.35,538.57,173.22,539.07z"/>
				<path class="st4" d="M184.66,545.16l-1.14,1.37c-1.4,1.68-3.91,1.9-5.59,0.51l-9.7-8.08c-1.68-1.4-1.9-3.91-0.51-5.59l1.14-1.37
					c1.4-1.67,3.91-1.9,5.59-0.5l9.7,8.08C185.83,540.97,186.06,543.48,184.66,545.16z"/>
			</g>
			<path class="st4" d="M140.38,506.97l-0.12-0.06c-1.64-0.81-2.32-2.83-1.5-4.47l5.92-11.92c0.81-1.64,2.83-2.32,4.47-1.5
				l0.12,0.06c1.64,0.82,2.32,2.83,1.5,4.47l-5.92,11.92C144.03,507.11,142.02,507.79,140.38,506.97z"/>
			<path class="st4" d="M182.37,507.64l-0.13,0.04c-1.73,0.62-3.65-0.29-4.26-2.01l-4.48-12.53c-0.62-1.73,0.29-3.65,2.02-4.26
				l0.13-0.04c1.73-0.62,3.65,0.29,4.26,2.01l4.48,12.53C185,505.1,184.1,507.02,182.37,507.64z"/>
		</g>
		<path class="st10" d="M216.95,269.92c0-29.07-23.57-52.64-52.64-52.64c-29.08,0-52.65,23.57-52.65,52.64
			c0,29.08,23.57,52.65,52.65,52.65C193.38,322.56,216.95,299,216.95,269.92z"/>
		<g>
			<path class="st4" d="M143.02,241.7L143.02,241.7c-2.56,0-4.66,2.1-4.66,4.66v48.32c0,2.57,2.1,4.67,4.66,4.67l0,0
				c2.57,0,4.66-2.1,4.66-4.67v-48.32C147.68,243.79,145.59,241.7,143.02,241.7z"/>
			<path class="st4" d="M184.53,273.79h0.46h0.15c2.56,0,4.67-2.1,4.67-4.67c0-0.66,0-21.36,0-22.01c0-1.47-0.7-2.79-1.77-3.65
				c-0.8-0.76-1.87-1.23-3.05-1.23l-25.42,0.21c-2.56,0-4.66,2.1-4.66,4.66c0,2.57,2.1,4.66,4.66,4.66h20.53v12.26
				c0,0-20.01,0.22-20.49,0.22c-2.31,0-4.24,1.7-4.6,3.91c-0.06,0.31-0.1,0.63-0.1,0.96c0,0.18,0.02,0.36,0.04,0.54v24.25
				c-0.02,0.18-0.04,0.36-0.04,0.54c0,1.29,0.53,2.46,1.39,3.31c0.85,0.86,2.02,1.39,3.31,1.39c0.18,0,0.36-0.01,0.54-0.03h25
				c2.56,0,4.67-2.1,4.67-4.66c0-2.57-2.1-4.67-4.67-4.67h-20.88v-16H184.53z"/>
		</g>
		
			<rect x="305.11" y="217.28" transform="matrix(-1 -1.224647e-16 1.224647e-16 -1 638.7026 1730.9263)" class="st21" width="28.47" height="1296.37"/>
		<path class="st9" d="M278.98,1534.76c0,0,14.45,7.24,40.37,7.24c28.09,0,40.37-7.24,40.37-7.24v-304.53
			c0-21.05-17.07-38.13-38.12-38.13h-2.61c-22.1,0-40.01,17.91-40.01,40.01V1534.76z"/>
	</g>
	<g>
		<path class="st21" d="M2898.02,595.05h-97.94c-10.83,0-19.61-8.78-19.61-19.61V212.46c0-10.83,8.77-19.61,19.61-19.61h97.94
			c10.83,0,19.61,8.78,19.61,19.61v362.98C2917.63,586.27,2908.85,595.05,2898.02,595.05z"/>
		<path class="st21" d="M2900.34,225.59h-269.66c-9.56,0-17.32-7.75-17.32-17.32l0,0c0-9.56,7.76-17.32,17.32-17.32h269.66
			c9.56,0,17.32,7.75,17.32,17.32l0,0C2917.66,217.84,2909.9,225.59,2900.34,225.59z"/>
		<path class="st21" d="M2630.65,483.8h-263.54c-8.14,0-14.73-6.6-14.73-14.73V205.51c0-8.14,6.59-14.74,14.73-14.74h263.54
			c8.14,0,14.74,6.6,14.74,14.74v263.55C2645.39,477.2,2638.79,483.8,2630.65,483.8z"/>
		<path class="st10" d="M2620.31,472.99h-242.86c-7.49,0-13.58-6.08-13.58-13.58V216.55c0-7.5,6.08-13.58,13.58-13.58h242.86
			c7.5,0,13.58,6.08,13.58,13.58v242.86C2633.89,466.91,2627.81,472.99,2620.31,472.99z"/>
		<path class="st4" d="M2598.8,446.58h-200.47c-6.14,0-10.14-6.46-7.41-11.96l99.56-200.47c3.03-6.11,11.74-6.13,14.81-0.04
			l100.9,200.46C2608.97,440.09,2604.97,446.58,2598.8,446.58z"/>
		<g>
			<polygon class="st10" points="2546.72,377.4 2578.12,432.47 2545.76,432.47 2522.51,377.28 			"/>
			<polygon class="st10" points="2448.67,377.4 2417.28,432.47 2449.65,432.47 2472.89,377.28 			"/>
			<polygon class="st10" points="2511.13,432.22 2484.27,432.22 2487.46,377.4 2507.27,377.4 			"/>
		</g>
		<g>
			<path class="st10" d="M2485.5,277.63c0-5.24,4.24-9.48,9.48-9.48s9.48,4.25,9.48,9.48c0,5.24-4.24,9.48-9.48,9.48
				S2485.5,282.87,2485.5,277.63z"/>
			<path class="st10" d="M2500.23,330.4h-8.77c-4.68,0-8.51-3.83-8.51-8.51V299.4c0-4.68,3.83-8.52,8.51-8.52h8.77
				c4.68,0,8.51,3.83,8.51,8.52v22.49C2508.74,326.57,2504.91,330.4,2500.23,330.4z"/>
			<path class="st10" d="M2471.8,367.97l-0.26-0.11c-3.03-1.28-4.47-4.82-3.19-7.86l10.87-25.75c1.29-3.03,4.82-4.47,7.86-3.18
				l0.26,0.11c3.03,1.28,4.48,4.82,3.19,7.85l-10.88,25.75C2478.38,367.82,2474.84,369.25,2471.8,367.97z"/>
			<g>
				<path class="st10" d="M2510.03,356.31l-2.19,0.51c-2.68,0.63-5.39-1.06-6.01-3.74l-3.62-15.53c-0.63-2.68,1.06-5.39,3.74-6.02
					l2.19-0.51c2.68-0.62,5.39,1.06,6.01,3.74l3.62,15.53C2514.38,352.98,2512.71,355.69,2510.03,356.31z"/>
				<path class="st10" d="M2524.47,364.01l-1.44,1.72c-1.76,2.12-4.94,2.41-7.06,0.64l-12.25-10.21c-2.11-1.76-2.4-4.94-0.64-7.06
					l1.44-1.72c1.77-2.12,4.94-2.4,7.06-0.64l12.25,10.21C2525.95,358.71,2526.23,361.89,2524.47,364.01z"/>
			</g>
			<path class="st10" d="M2468.54,315.78l-0.15-0.07c-2.08-1.03-2.93-3.57-1.9-5.65l7.47-15.05c1.04-2.07,3.58-2.93,5.65-1.9
				l0.15,0.07c2.08,1.03,2.93,3.57,1.9,5.65l-7.48,15.05C2473.16,315.95,2470.61,316.81,2468.54,315.78z"/>
			<path class="st10" d="M2521.57,316.62l-0.17,0.06c-2.18,0.78-4.6-0.36-5.38-2.55l-5.66-15.82c-0.78-2.18,0.36-4.6,2.55-5.39
				l0.15-0.05c2.19-0.78,4.61,0.36,5.38,2.55l5.67,15.82C2524.9,313.41,2523.75,315.84,2521.57,316.62z"/>
		</g>
		<path class="st9" d="M2797.15,390.4c0-29.08,23.56-52.64,52.64-52.64c29.07,0,52.64,23.57,52.64,52.64
			c0,29.07-23.58,52.64-52.64,52.64C2820.71,443.04,2797.15,419.47,2797.15,390.4z"/>
		<path class="st10" d="M2797.15,509.53c0-29.07,23.56-52.64,52.64-52.64c29.07,0,52.64,23.57,52.64,52.64
			c0,29.07-23.58,52.64-52.64,52.64C2820.71,562.17,2797.15,538.61,2797.15,509.53z"/>
		<g>
			<path class="st4" d="M2839.74,476.77c0-4.14,3.36-7.51,7.51-7.51s7.51,3.36,7.51,7.51c0,4.15-3.36,7.51-7.51,7.51
				S2839.74,480.92,2839.74,476.77z"/>
			<path class="st4" d="M2851.41,518.55h-6.95c-3.71,0-6.74-3.03-6.74-6.74v-17.81c0-3.71,3.03-6.74,6.74-6.74h6.95
				c3.71,0,6.74,3.03,6.74,6.74v17.81C2858.15,515.52,2855.12,518.55,2851.41,518.55z"/>
			<path class="st4" d="M2828.9,548.3l-0.21-0.09c-2.4-1.02-3.54-3.81-2.52-6.22l8.61-20.39c1.02-2.4,3.81-3.54,6.22-2.52l0.21,0.09
				c2.4,1.02,3.54,3.81,2.52,6.22l-8.62,20.39C2834.1,548.18,2831.3,549.31,2828.9,548.3z"/>
			<g>
				<path class="st4" d="M2859.16,539.07l-1.73,0.4c-2.13,0.5-4.27-0.83-4.76-2.96l-2.87-12.29c-0.49-2.12,0.84-4.27,2.97-4.76
					l1.72-0.4c2.12-0.5,4.27,0.84,4.77,2.96l2.86,12.3C2862.62,536.43,2861.28,538.57,2859.16,539.07z"/>
				<path class="st4" d="M2870.59,545.16l-1.14,1.37c-1.39,1.68-3.91,1.9-5.58,0.51l-9.7-8.08c-1.68-1.4-1.9-3.91-0.51-5.59
					l1.14-1.37c1.4-1.67,3.92-1.9,5.6-0.5l9.69,8.08C2871.76,540.97,2871.99,543.48,2870.59,545.16z"/>
			</g>
			<path class="st4" d="M2826.31,506.97l-0.12-0.06c-1.65-0.81-2.32-2.83-1.5-4.47l5.92-11.92c0.81-1.64,2.83-2.32,4.47-1.5
				l0.13,0.06c1.64,0.82,2.32,2.83,1.5,4.47l-5.92,11.92C2829.97,507.11,2827.96,507.79,2826.31,506.97z"/>
			<path class="st4" d="M2868.3,507.64l-0.12,0.04c-1.73,0.62-3.64-0.29-4.26-2.01l-4.49-12.53c-0.62-1.73,0.29-3.65,2.02-4.26
				l0.13-0.04c1.73-0.62,3.64,0.29,4.26,2.01l4.48,12.53C2870.94,505.1,2870.03,507.02,2868.3,507.64z"/>
		</g>
		<path class="st10" d="M2797.15,269.92c0-29.07,23.56-52.64,52.64-52.64c29.07,0,52.64,23.57,52.64,52.64
			c0,29.08-23.58,52.65-52.64,52.65C2820.71,322.56,2797.15,299,2797.15,269.92z"/>
		<g>
			<path class="st4" d="M2828.95,241.7L2828.95,241.7c-2.56,0-4.67,2.1-4.67,4.66v48.32c0,2.57,2.11,4.67,4.67,4.67l0,0
				c2.57,0,4.66-2.1,4.66-4.67v-48.32C2833.62,243.79,2831.52,241.7,2828.95,241.7z"/>
			<path class="st4" d="M2870.46,273.79h0.46h0.15c2.57,0,4.67-2.1,4.67-4.67c0-0.66,0-21.36,0-22.01c0-1.47-0.69-2.79-1.77-3.65
				c-0.8-0.76-1.87-1.23-3.05-1.23l-25.42,0.21c-2.56,0-4.66,2.1-4.66,4.66c0,2.57,2.1,4.66,4.66,4.66h20.53v12.26
				c0,0-20.02,0.22-20.49,0.22c-2.31,0-4.24,1.7-4.6,3.91c-0.06,0.31-0.1,0.63-0.1,0.96c0,0.18,0.01,0.36,0.04,0.54v24.25
				c-0.02,0.18-0.04,0.36-0.04,0.54c0,1.29,0.53,2.46,1.39,3.31c0.84,0.86,2.01,1.39,3.31,1.39c0.18,0,0.36-0.01,0.54-0.03h25
				c2.57,0,4.67-2.1,4.67-4.66c0-2.57-2.1-4.67-4.67-4.67h-20.87v-16H2870.46z"/>
		</g>
		<rect x="2680.51" y="217.28" class="st21" width="28.47" height="1296.37"/>
		<path class="st9" d="M2735.11,1534.76c0,0-10.65,9.43-40.37,9.43c-27.91,0-40.37-9.43-40.37-9.43v-304.53
			c0-21.05,17.06-38.13,38.12-38.13h2.61c22.1,0,40.01,17.91,40.01,40.01V1534.76z"/>
	</g>
	<g>
		<g id="man_3_">
			<path class="st13" d="M1375.47,1022.59c-4.32,11.53-11.8,24.91-19.64,28.22c-8.88,3.76-12.59,9.09-12.59,9.09l-7.16-4.16
				l-8.56-4.97c0,0,0.2-0.94,0.63-2.49c0.41-1.54,1.06-3.67,1.93-6.04c0,0,2.63-3.37,1.03-7.59c-1.6-4.22-1.27-10.75,1.48-14.73
				c2.75-3.98,5.42-13.77,7.07-13.48c4,0.69-1.99,14.15-0.28,16.65c1.54,2.26,3.48,1.5,3.84,1.32c0.02-0.01,0.04-0.02,0.07-0.04
				c11.24-4.91,24.9-31.43,30.93-27.83C1376.47,997.89,1377.31,1017.68,1375.47,1022.59z"/>
			<g>
				<path class="st16" d="M1336.58,1038.6l14.06,9.88c0.99,0.7,2.38,0.46,3.08-0.53l36.12-51.07c0.7-0.99,0.46-2.37-0.54-3.07
					l-14.06-9.87c-0.99-0.7-2.38-0.46-3.08,0.53l-36.12,51.07C1335.35,1036.52,1335.59,1037.91,1336.58,1038.6z"/>
				<path class="st12" d="M1349.45,1047.64l8.24,5.79c0.76,0.53,1.81,0.35,2.34-0.4l36.73-51.93c0.53-0.75,0.35-1.81-0.41-2.34
					l-8.24-5.79c-0.75-0.53-1.81-0.35-2.34,0.41l-36.73,51.93C1348.52,1046.06,1348.7,1047.11,1349.45,1047.64z"/>
			</g>
			<path class="st12" d="M1134.8,964.97c0,0,71.43,124.56,97.38,147.5l95.35-70.65c0,0,13.82,4.25,19.85,18.08
				c0,0-58.01,117.36-114.96,122.26c-56.96,4.9-136.69-140.96-136.69-140.96L1134.8,964.97z"/>
			<g>
				<path class="st12" d="M971.59,1811.29l-41.38-0.06c-5.2-2.83-9.84-9.29-11.29-18.91c-2-13.28-16.93-20.55-20.15-31.42
					c-3.21-10.86,13.37-26.13,13.37-26.13l2.77-3.55l2.89-3.69l27.45,6.48c0,0,0.67,6.52,1.07,14.83c0.29,5.99,0.44,12.91,0.1,18.98
					c-0.83,14.49,4.02,30.09,16.93,32.94C972.9,1802.84,972.46,1808.48,971.59,1811.29z"/>
				<path class="st12" d="M1211.7,1811.62l-94.62-0.13c-4.54-5.54-2.84-25.96-2.14-32.63c0.14-1.34,0.24-2.12,0.24-2.12
					s32.35-25.71,36.76-5.99c0.13,0.62,0.3,1.23,0.48,1.83c5.57,18.45,30.63,26.86,45.11,29.22
					C1206.94,1803.34,1210.41,1808.21,1211.7,1811.62z"/>
				<path class="st10" d="M1194.4,1285.27c0,0-4.99,61-10.86,134.31c-7.98,99.6-17.57,221.93-18.54,245.1
					c-1.67,40.25-8.22,104.62-8.22,104.62s-15.36,15.27-46.04,8.79c0,0-27.23-91.94-34.91-189.19c-0.12-1.6-0.24-3.2-0.36-4.81
					c-7.13-99-18.14-307.46-18.14-307.46L1194.4,1285.27z"/>
				<path class="st17" d="M1194.4,1285.27c0,0-4.99,61-10.86,134.31l-107.71,169.32c-0.12-1.6-0.24-3.2-0.36-4.81
					c-7.13-99-18.14-307.46-18.14-307.46L1194.4,1285.27z"/>
				<path class="st10" d="M1171.99,1292.49c0,0-88.74,220.8-147.03,324.54c-58.29,103.74-76.5,132.69-76.5,132.69
					s-33.29-13.33-36.31-22.39c0,0,22.51-200.4,61.52-249.2c22.04-27.58,48-110.39,49.25-139.37c1.25-28.97,8-86.31,8-86.31
					L1171.99,1292.49z"/>
			</g>
			<path class="st13" d="M1150.42,970.4c-34.57,10.82-94.32-18.59-94.32-18.59s31.89-23.78,30.29-73.33l26.69,21.49l18.13,14.6
				c0,0-0.08,8.59-2.09,23.65c-0.53,3.96-1.19,8.37-2.02,13.2C1141.93,959.56,1150.42,970.4,1150.42,970.4z"/>
			<path class="st22" d="M1131.21,914.57c0,0-0.08,8.59-2.09,23.65c-20.1-3.47-42.87-35.89-42.87-35.89
				c10.24-2.93,19.21-3.45,26.83-2.36L1131.21,914.57z"/>
			<path class="st13" d="M1141.78,913.77c0,0-57.09,9.37-62.4-26.15c-5.31-35.52-16.25-58.23,19.98-65.72
				c36.23-7.49,45.35,5.02,50.01,16.44C1154.03,849.77,1156.49,910.42,1141.78,913.77z"/>
			<path class="st16" d="M1198.21,1290.36c-1.04,0.86-2.25,1.37-3.63,1.37c-12.98-0.19-50.83,6.94-82.84,3.62
				c-26.99-2.62-50.87-10.62-76.51-22.12c-3.4-1.52-11.24-5.7-11.06-9.5c0.12-4.15,0.54-10.18,1.07-17.77
				c1.85-26.39,5.08-71.78,2.07-124.15c-0.54-9.75-0.82-19.43-0.84-28.95c-0.17-70.98,14.04-133.38,42.45-154.47
				c2.43-1.73,17.3,5.54,30.96,12.28c12.63,6.23,25.26,6.93,37.2,4.54l11.92,10.53c14.52,13.47,30.41,31.77,37.29,59.55
				c5.86,23.63,9.26,66.24,11.1,110.39c0.84,20,1.5,40.18,1.66,59.32l0,0.69c0.16,1.89,0.16,3.97,0.16,5.87
				C1199.82,1250.69,1199.07,1289.66,1198.21,1290.36z"/>
			<path class="st12" d="M1025.23,1245.96c1.85-26.39,5.08-71.78,2.07-124.15c-0.54-9.75-0.82-19.43-0.84-28.95
				c11.86-28.56,21.55-49.28,21.55-49.28l29.8,0.04C1077.81,1043.63,1099.45,1192.35,1025.23,1245.96z"/>
			<g>
				<path class="st12" d="M872.35,1414.27l127.16,18.23c16.5,2.36,31.94-9.2,34.32-25.68l7.91-54.77
					c2.38-16.52-9.18-31.98-25.71-34.35l-127.16-18.23c-16.49-2.36-31.93,9.19-34.32,25.68l-7.91,54.76
					C844.26,1396.45,855.82,1411.9,872.35,1414.27z"/>
				<path class="st16" d="M1023.16,1334.07L1023.16,1334.07c-3.56-8.91-11.26-15.96-21.03-18.37h-0.01c-0.01,0-0.02,0-0.02-0.01
					c-0.96-0.23-1.93-0.42-2.93-0.57l-25.3-3.62l1.71-11.85c0.39-2.63-0.29-5.28-1.91-7.43c-1.61-2.14-3.97-3.54-6.62-3.91
					l-6.6-0.96l-26.57-3.8l-4.79-0.69c-5.49-0.79-10.6,3.03-11.39,8.49l-1.71,11.84l-43.67-6.27c-16.6-2.38-32.13,9.21-34.52,25.75
					l-8.01,55.51c-2.39,16.54,9.24,32.02,25.83,34.4l126.83,18.19c2.24,0.32,4.45,0.39,6.61,0.22h0.01c0.01,0,0.01,0,0.01,0
					c3.47-0.26,6.81-1.12,9.91-2.48c9.33-4.09,16.42-12.74,17.98-23.49l8.02-55.5C1025.78,1344.12,1025.06,1338.83,1023.16,1334.07z
					 M923.95,1292.26c0.24-1.65,1.54-2.91,3.13-3.16c0.36-0.06,0.74-0.07,1.13-0.01l5.64,0.81l20.91,3.01l11.4,1.63
					c2.05,0.29,3.47,2.19,3.18,4.23l-1.7,11.84l-45.38-6.51L923.95,1292.26z"/>
			</g>
			<path class="st13" d="M969.23,1250.99c0,0-6.69,8.85-6.96,12.4c-1.83,23.98,9.17,27.32-19.33,40.61c0,0-12.17,4.61-12.36-4.8
				c-0.19-9.4,8.45-9.55,6.89-22.73c-1.8-15.19-1.62-15.33,8.4-23.25l6.64-10.9L969.23,1250.99z"/>
			<path class="st16" d="M952.25,1257.76c10.73,2.1,22.36,1.27,22.36,1.27s31.99-98.02,36.11-106.97
				c4.11-8.96,94.78-114.86,94.78-114.86l-37.58-94.09c0,0-98.13,162.84-108.11,185.72c-16.48,37.82-22.3,122.66-22.3,122.66
				S943.82,1256.11,952.25,1257.76z"/>
			<path class="st16" d="M1079.33,884.21c0,0,5.86-0.97,4.93-9.01c-0.93-8.04-0.91-18.55,5.65-16.58c6.56,1.97,6.88,7.2,9.58,4.15
				c2.7-3.05,2.77-15.93,22.29-16.8c19.52-0.87,27.44,5.91,36.52,1.95c9.08-3.96,9.58-17.66,9.58-17.66s-2.59,4.89-6.49,6.43
				c0,0,15.17-20.62-2.34-34.79c-17.51-14.18-35.4-4.94-45.55-4.34c-22.35,1.32-36.8,2.63-44.12,17.26
				C1062.05,829.45,1065.01,870.09,1079.33,884.21z"/>
			<path class="st13" d="M958.69,1261.52c0,0,6.41,6.69,6.82,9.46c1.29,8.92,4.27,12.77,2.77,13.75c-3.11,2-7.22-4.6-9.18-10.52
				C957.14,1268.28,958.69,1261.52,958.69,1261.52z"/>
		</g>
	</g>
	<g>
		<g>
			<path class="st13" d="M2236.45,1724.87l-17.91-5.8c0,0-3.71-48.61,4.25-106.86c5.04-36.91,14.3-76.88,31.06-108.98
				c7.59-14.53,16.71-27.44,27.68-37.75c0,0,13.73-31.89,31.93-74.55c20.24-47.42,146.88-61.32,74.62,38.02
				c-14.82,20.38-30.75,56.26-49.83,78.05c-32.6,37.25-55.61,80.74-71.4,119.01C2244.25,1680.76,2236.45,1724.87,2236.45,1724.87z"
				/>
			<path class="st13" d="M2195.67,1727.58c-5.43,8.8,6.3,17.41,20.8,25.54c14.5,8.13,8.49,8.94,27.04,22.75
				c18.54,13.81,29.47,12.29,32.32,10.26c2.53-1.79-5.05-10.31-13-19.64c-1.01-1.17-2-2.36-2.99-3.54
				c-8.89-10.63-10.2-23.99-14.37-37.84c-3.94-13.12,2.31-45.72,2.31-45.72l-24.75-19.66c0,0-5.03,29.65-7.8,41.99
				c-1.62,7.26-7.56,13.33-12.38,17.82C2200.23,1721.97,2197.58,1724.48,2195.67,1727.58z"/>
			<path class="st23" d="M2216.47,1753.12c14.5,8.13,8.49,8.94,27.04,22.75c18.54,13.81,29.47,12.29,32.32,10.26
				c2.53-1.79-5.05-10.31-13-19.64l-0.24,0.09c0,0-16.74-2.25-31.05-14.96c-11.66-10.35-20.7-24.88-28.69-32.09
				c-2.61,2.44-5.26,4.94-7.18,8.05C2190.24,1736.38,2201.97,1745,2216.47,1753.12z"/>
		</g>
		<g>
			<path class="st13" d="M2131.72,1748.32l-20.28,10.51c0,0-12.13-15.8-22.97-34.89c-7.58-13.37-14.55-28.36-16.26-40.64
				c-4.14-29.82-35.71-78.82-32.42-87.17c3.29-8.34,65.89-22.77,65.89-22.77s12.23,83.78,20.37,137.93
				C2128.43,1727.11,2130.45,1740.38,2131.72,1748.32z"/>
			<path class="st10" d="M2116.28,1631.36c-11.59,5.62-22.36,8.85-31.59,10.65c-13.77,2.7-24.12,2.24-28.7,1.79
				c-1.7-0.16-2.59-0.32-2.59-0.32s-11.27-8.12-24.32-27.03c-11.97-17.33-20.85-42.12-20.85-42.42l95.58-9.31L2116.28,1631.36z"/>
			<path class="st17" d="M2084.69,1642.02c-13.77,2.7-24.12,2.24-28.7,1.79l10.74-41.73
				C2066.73,1602.08,2080.64,1623.81,2084.69,1642.02z"/>
			<path class="st10" d="M2131.72,1748.32l-20.28,10.51c0,0-12.13-15.8-22.97-34.89c8.44-0.65,23.11-3.17,37.58-12.64
				C2128.43,1727.11,2130.45,1740.38,2131.72,1748.32z"/>
			<path class="st13" d="M2085.64,1592.5c0,0-25.62,36.16-41.14,86.97c-3.65,11.98-16.1,26.88-28.68,40.12
				c-12.21,12.86-24.54,24.14-29.1,29.69l-20.65-9.94c0,0,7.26-20.82,17.99-39.72c3.99-7.03,8.44-13.79,13.2-19.12
				c6.58-7.36,4.41-100.35,10.97-106.48S2085.64,1592.5,2085.64,1592.5z"/>
			<path class="st10" d="M2097.85,1570.98l-37.83,76.9c-0.22,0.03-28.2,0.87-48.06-10.25c-11.39-6.38-16.51-13.93-16.51-13.93
				l11.79-52.72H2097.85z"/>
			<path class="st24" d="M2030.09,1314.23c0,0-12.86-27.06-43.96-10.95c-31.09,16.11-0.82,77.51-17.13,92.68
				c-16.32,15.17,5.91,25.1,2.6,35.98c-3.32,10.88,6.15,23.24,27.9,21.79c21.75-1.45,44.66-0.28,54.49-19.31
				c9.82-19.02,7.59-60.91,3.8-66.79C2053.99,1361.73,2030.09,1314.23,2030.09,1314.23z"/>
			<path class="st13" d="M2027.5,1426.66l0.1,0.06C2027.52,1426.76,2027.5,1426.66,2027.5,1426.66z"/>
			<path class="st13" d="M2080.46,1458.62l-52.86-31.9c0.29-0.11,1.36-1.71,5.31-13.15c1.69-4.87,2.58-9.1,3.01-12.45
				c0.05-0.33,0.09-0.67,0.12-0.98c0.54-4.87,0.14-7.69,0.14-7.69l11.58,4.19l21.41,7.75c-0.25,5.43,0.51,9.25,1.66,11.87
				c2.8,6.37,8.01,6.41,8.16,6.41L2080.46,1458.62z"/>
			<path class="st25" d="M2070.86,1416.26c-20.69,1.76-32.35-11.74-34.92-15.14c-0.38-0.5-0.57-0.78-0.57-0.78s0.25-0.07,0.69-0.2
				c1.69-0.49,6.25-1.87,11.72-3.49l21.41,7.75C2068.94,1409.82,2069.7,1413.65,2070.86,1416.26z"/>
			<path class="st13" d="M2071.9,1408.83c0,0-45.98,5.05-46.92-26.04c-0.94-31.09-7.73-45.32,24.08-48.09
				c31.82-2.77,39.33,8.69,41.21,19.21C2096.12,1386.77,2084.85,1407.44,2071.9,1408.83z"/>
			<path class="st26" d="M1986.13,1303.28c-0.64-1.44-1.09-2.37-1.09-2.37C1985.51,1301.57,1985.87,1302.38,1986.13,1303.28z"/>
			<path class="st13" d="M2086.67,1425.79c0,0,44.1-33.88,48.8-45.1c4.71-11.21,24.95-52.27,30.18-56.46c0,0,10.97-1.4,12.53,6.18
				c1.57,7.58-10.44,52.62-18.8,66.22c-8.37,13.59-48.46,59.68-61.63,66.38L2086.67,1425.79z"/>
			<path class="st13" d="M2193.83,1303.49c-0.72,3.92-2.33,8.14-4.21,10.32c-2.47,2.91-6.4,8.72-8.87,12.51
				c-1.6,2.32-2.62,4.06-2.62,4.06l-12.51-6.11c0,0-0.29-21.22,8-25.73c0.29-0.15,0.44-0.29,0.73-0.29c3.49-1.89,6.83-3.2,9.74-4.07
				c3.92-1.02,6.98-1.16,8.73-0.15C2194.41,1294.91,2194.71,1299.13,2193.83,1303.49z"/>
			<path class="st24" d="M2051.52,1349.89c-16.27-4.12-10.05,24.71-14.16,22.74c-4.6-2.21-12.5-2.18-11.25,3.37
				c1.25,5.55,3.04,7.54,3.98,11.01c0.95,3.46-0.01,10.33-3.79,8.95c-3.78-1.39-38.97-41.57-14.12-72.87
				c24.85-31.29,98.94-12.01,75.6,20.72C2083.67,1349.58,2063.11,1352.82,2051.52,1349.89z"/>
			<path class="st4" d="M2110.58,1582.31c0,0-13.81,7.33-35.57,6.99c-13.86-0.21-43.29-6.23-62.22-13.07
				c-10.78-3.88-18.16-8.03-17.27-11.51c1.28-5.02,10.51-43.56,19.05-79.22c7.8-32.61,15.02-62.82,15.02-62.82
				s21.53,15.3,34.08,9.91c12.55-5.4,10.94-11.5,10.94-11.5s8.21-3.31,12.05-2.09c3.86,1.21,14.79-4.98,14.79-4.98
				s12.07,9.33,12.53,29.36c0.07,2.96-0.1,6.17-0.63,9.61l-8.72,10.04C2104.65,1463.02,2123.13,1521.29,2110.58,1582.31z"/>
			<path class="st16" d="M2159.12,1773.23h-44.91c-5.54,0-9.99-4.57-9.89-10.11c0.04-2.61,0.23-5.46,0.67-8.16
				c0.17-1.02,0.71-1.94,1.5-2.76c3.54,1.2,8.75,2.05,14.55-0.03c4.75-1.71,8.26-4.3,10.7-6.67c0.63,0.61,13.14,12.53,18.92,12.53
				c4.49,0,10.79,1.64,13.42,7.81C2165.58,1769.34,2162.93,1773.23,2159.12,1773.23z"/>
			<path class="st10" d="M2015.82,1719.59c-12.21,12.86-24.54,24.14-29.1,29.69l-20.65-9.94c0,0,7.26-20.82,17.99-39.72
				C1987.76,1705.37,1997.45,1717.21,2015.82,1719.59z"/>
			<path class="st16" d="M1991.2,1743.94c0,0-0.76,13.15,3.62,14.89c3.02,1.2,7.86,3.63,10.55,7.76c1.86,2.85-0.17,6.64-3.57,6.64
				h-16.65c-5.5,0-10.91-1.35-15.76-3.96c-6.27-3.38-14.4-8.09-16.07-10.7c-2.78-4.37,13.94-23.03,13.94-23.03
				S1977.55,1746.9,1991.2,1743.94z"/>
			<path class="st13" d="M2041.38,1530.3c0,0,13.28-2.48,18.48,0.92c5.2,3.39,6.73,8.72,2.99,10.89c-11.72,6.81-23.6-0.72-23.6-0.72
				L2041.38,1530.3z"/>
			<path class="st13" d="M2030.13,1426.84c0,0-40.91,8.66-57.04,72.25c-1.58,6.22,0.05,12.87,4.36,17.63
				c7.41,8.22,23.77,20.24,61.8,24.68c4.15,0.48,4.71-10.06,4.71-10.06c-0.42,0.84-25.83-16.42-36.65-25.7
				c-1.96-1.68-1.88-5.2-0.47-7.36c3.65-5.58,9.79-15.22,11.85-20.17C2021.7,1470.89,2041.56,1430.12,2030.13,1426.84z"/>
			<path class="st4" d="M2029.6,1422.67c0,0-24.05,1.71-43.66,27.87c0,0,6.63,24.05,37.79,30.47
				C2023.73,1481.01,2042.92,1437.71,2029.6,1422.67z"/>
		</g>
		<path class="st24" d="M2360.44,792.66c0,0-43.68-5.32-65.64,35.33c-21.96,40.65-20.19,99.53-41.48,127.31
			c-21.29,27.78,3.55,54.11,3.55,54.11l165.89,5.6c0,0,11.53-31.05,0-68.31C2411.22,909.44,2467.55,798.29,2360.44,792.66z"/>
		<path class="st14" d="M2500.88,1285.98c-1.71,6.48-7.25,21.13-11.57,21.13c-3.52,0-4.79-17.93-9.31-21.74
			c-6.57-5.52-11.92-17.11-12.77-19.91c-1.76-5.79-3.41-6.99-3.41-6.99l0.01-0.01h-0.02c0,0-52.45-95.9-56.55-120.45
			c-1.35-7.99-4.79-24.02-8.82-41.98c-4.38-19.52-9.47-41.34-13.31-57.67c16.74-3.26,35.27-4.41,50.37-4.71
			c3.08,19.87,5.83,40.18,8.2,57.82c3.53,26.24,6.2,46.6,7.86,50.97c4.56,11.98,17.13,76.52,28.98,110.03
			c1.36,3.3,5.21,11.88,9.42,14.8C2495.23,1270.9,2502.57,1279.49,2500.88,1285.98z"/>
		<path class="st13" d="M2405.81,1191.33c-28.97-92.62,29.35-91.41,26.33-137.76c-3.01-46.34-38.9-96.17-38.9-96.17
			s-1.29-0.13-3.53-0.34c-1.23-0.11-2.29-0.91-2.71-2.07c-1.34-3.66-1.73-11.68-1.71-20.03c0.03-12.76,1-26.3,1-26.3l-43.03-8.52
			l-2.55-0.5c0.08,21.65-4.02,37.92-8.46,47.01c-2.11,4.32-6.22,7.28-10.99,7.95c-9.24,1.3-25.51,4.06-36.47,8.65
			c-5.33,2.22-9.39,4.88-10.81,7.99c-11.81,25.98-23.62,91.56-31.91,138.34c-4.62,26.07-8.15,46.31-9.99,50.59
			c-5.13,11.97-20.8,77.8-34.2,110.29l17.1,5.13c0,0,56.43-93.61,61.56-117.97c1.67-7.94,5.78-23.81,10.57-41.58
			c0.72-2.7,1.46-5.43,2.21-8.18c8.46,22.92,12.77,33.53,12.54,43.44c-0.33,14.1-9.89,26.76-29.87,71.57
			C2260.95,1247.61,2435.39,1285.92,2405.81,1191.33z"/>
		<path class="st14" d="M2386.3,908.65c0,0-0.98,13.54-1,26.3c-24.08-0.68-36.81-22.64-42.03-34.82L2386.3,908.65z"/>
		<path class="st13" d="M2394.35,920.73c0,0-56.98,0.94-57.02-34.55c-0.04-35.49-7.42-59.27,28.96-61.37
			c36.37-2.1,43.46,11.43,46.35,23.28C2415.53,859.93,2409.16,919.57,2394.35,920.73z"/>
		<path class="st13" d="M2473.84,1747.84l-18.28,4.5c0,0-28.75-39.37-52.65-93.09c-15.15-34.03-28.33-72.89-30.98-109
			c-1.2-16.35-0.25-32.13,3.65-46.66c0,0-5.12-34.36-12.1-80.2c-7.76-50.97-17.83-116.13-25.7-164.04l4.76-1.41l77.78-45.48
			c0,0,35.74,81.47,26.61,203.97c-1.87,25.13,3.49,64.03-1.26,92.59c-8.11,48.84-4.77,97.92,1.95,138.78
			C2457.26,1706.23,2473.84,1747.84,2473.84,1747.84z"/>
		<path class="st27" d="M2285.95,1098.6c10.68,29.5,16.17,41.53,15.91,52.67c34.03-52.7,95.51-60.65,95.51-60.65l-116.75-13.35
			C2281.7,1084.5,2283.43,1091.64,2285.95,1098.6z"/>
		<path class="st24" d="M2410.94,828.35c-8.79-10.65-15.44-8.34-19.17-5.14c-30.55-16.94-51.23,8.21-51.23,8.21
			c-3.81,25.46-22.17,40.05-22.17,40.05s10.15,5.39,34.32,0.26c28.7-6.09,36.61-38.44,37.75-42.64c3.48,3.12,10.33,9.91,12.42,16.56
			c2.84,9.03,4.12,27.64,9.54,27.01C2412.39,872.66,2424.15,844.36,2410.94,828.35z"/>
		<path class="st13" d="M2199.1,1267.59c0,0-5.2,12.25-10.61,15.67c-5.41,3.42-13.11,11.69-11.69,18.25
			c1.43,6.55,2.85,16.81,9.69,16.81c6.84,0,22.8-30.21,24.8-35.9c2-5.7,3.7-6.84,3.7-6.84L2199.1,1267.59z"/>
		<path class="st4" d="M2467.55,1536.92c-68.79,39.31-249.9-23.28-249.72-26.91c0.96-19.24,18.37-135.05,38.81-245.59
			c12.56-67.97,46.02-93.35,40.67-97.64c-0.06-0.05-0.09-0.08-0.09-0.08c-20.62-14.64-11.71-39.76-10.35-48.76
			c-6.34,1.71-26.78,5.56-50.17-7.34c9.64-47.11,23.36-113.16,37.13-139.32c0.67-1.28,1.81-2.45,3.38-3.56
			c-0.11-0.11-0.14-0.16-0.14-0.16c12.88-9.39,39.2-12.27,39.2-12.27s14.19,34.73,18.53,40.16c28.07,35.08,78.51,19.25,71.64-2.61
			c-2.47-7.96-15.22-33-16.77-35.79c-0.09-0.13,3.56,0.34,3.56,0.34c8.46,1.12,14.45,1.97,18.76,2.72
			c8.46,1.44,10.56,2.45,12.67,4.07c7.43,7.42,17.08,25.87,17.86,58.79c0.29,12.24,13.05,147.41-28.21,145.07
			c-0.93-0.05-0.14,2.16,1.64,6.34c5.83,13.38,22.36,46.97,27.15,90.06C2458.71,1404.61,2467.55,1536.92,2467.55,1536.92z"/>
		<path class="st4" d="M2377.97,899.78c0,0,1.08,4.37,11.98,3.56c0,0,9.14-0.67,8.81-5.48
			C2398.76,897.86,2389.84,894.53,2377.97,899.78z"/>
		<path class="st13" d="M2211.28,1282.41c0,0-1.87,13.79-5.51,16.97c-3.63,3.17-4.16,8.9-7.89,5.82
			C2194.17,1302.13,2211.28,1282.41,2211.28,1282.41z"/>
		<path class="st13" d="M2440.61,1771.62c0.02,10.34,14.52,11.49,31.13,10.76c16.61-0.72,11.93,3.13,34.96,5.1
			c23.04,1.97,31.53-5.08,32.88-8.3c1.21-2.84-9.72-6.11-21.39-9.85c-1.47-0.47-2.94-0.96-4.42-1.44
			c-13.14-4.37-21.3-15.03-32.14-24.61c-10.26-9.07-22.11-40.09-22.11-40.09l-31.39-3.69c0,0,11.34,27.85,15.49,39.81
			c2.44,7.03,0.59,15.33-1.14,21.67C2441.54,1764.45,2440.6,1767.98,2440.61,1771.62z"/>
		<path class="st23" d="M2471.74,1782.38c16.61-0.72,11.93,3.13,34.96,5.1c23.04,1.97,31.53-5.08,32.88-8.3
			c1.21-2.84-9.72-6.11-21.39-9.85l-0.16,0.2c0,0-15.42,6.91-34.27,3.64c-15.36-2.66-30.7-10.25-41.29-12.18
			c-0.93,3.45-1.87,6.98-1.86,10.62C2440.63,1781.96,2455.13,1783.11,2471.74,1782.38z"/>
		<path class="st16" d="M2467.55,1536.92c-68.79,39.31-249.9-23.28-249.72-26.91c0.96-19.24,18.37-135.05,38.81-245.59
			c12.56-67.97,46.02-93.35,40.67-97.64c1.27,1.03,20.67,16.69,56.26,14.56c31.85-1.92,56.39-5.91,62.4-6.97
			c5.83,13.38,22.36,46.97,27.15,90.06C2458.71,1404.61,2467.55,1536.92,2467.55,1536.92z"/>
		<path class="st11" d="M2297.23,1166.71c0,0,56.34,23.51,117.1,1.33l3.09,9.53c0,0-62.52,21.71-122.62-2.99L2297.23,1166.71z"/>
	</g>
	<g>
		<path class="st14" d="M685.48,1141.45c0,0,14.72,158.77-18.09,245.25c-9.07,23.89-109.75,117.14-125.56,148.38
			c0,0-21.64-18.79-18.84-23.25c14.54-23.17,34.18-94.79,77.96-142.4c43.78-47.61-9.06-170.72-9.06-170.72L685.48,1141.45z"/>
		<path class="st13" d="M672.96,1092.43c41.4-10.54,86.9-74.75,86.9-74.75l-11.65-10.11c-12.07,14.23-62.24,38.74-62.24,38.74
			c0.27-13.02-0.07-24.9-0.89-35.7c-5.57-73.46-33.26-97.94-40.82-103.31c-1.22-0.87-1.92-1.23-1.92-1.23s-0.03,0.53-0.07,1.54
			c-0.11,2.18-0.31,6.58-0.52,12.62C640.2,965.17,638.37,1101.24,672.96,1092.43z"/>
		<path class="st13" d="M748.21,1007.56c0.17-1.73-0.75-24.47,6.75-29.09c5.91-3.64,14.52-14.03,17.36-13.5
			c2.85,0.53,10.66,17.2,6.1,28.27c-4.56,11.07-18.56,24.44-18.56,24.44L748.21,1007.56z"/>
		<path class="st13" d="M645.72,1598.34l-21.06-2.45c0,0-55.01-113.34-47.57-183.67c1.71-16.19,0.35-32.53-4.5-48.06
			c-5.26-16.81-11.97-39.16-17.71-61c-3.5-13.26-6.91-27.22-9.97-41.35c-4.09-18.85-7.52-37.95-9.63-55.94
			c-3.49-29.9-3.3-56.67,3.79-74.06l95.05-9.51c0,0,8.18,76.21,10.45,151.91c0.14,4.72,0.26,9.44,0.35,14.13
			c0.79,41.35-5.39,75.68-9.45,105.75c-1.26,9.36-1.59,18.8-0.99,28.22L645.72,1598.34z"/>
		<path class="st12" d="M609.76,824.33c0,0-22.26,18.95-1.85,40.77c0,0-17.01,1.67-22.76-3.04c0,0,1.13,2.29,2.18,3.33
			c0,0-19.01,0.69-26.86-5.25c-7.85-5.93-2.81-103.22,49.97-92.34c0,0,44.74-3.38,40.57,48.38c-4.17,51.76,12.72,51.77,12.72,51.77
			s-4.7,2.32-6.97,2.32c0,0-3.31-1.27-3.97-3.1c0,0,0.66,2.88,1.51,3.79c0,0-18.23,1.73-27.34-5.15
			C617.85,858.91,607.16,835.01,609.76,824.33z"/>
		<path class="st13" d="M676.81,937.83H554.85c8.72-21.86,21.22-37.67,30.71-39.61c5.06-1.34,13.64-19.62,13.54-49.07l2.27,0.45
			l38.31,7.58c0,0-0.87,12.06-0.9,23.42c-0.02,9.47,0.48,19.09,2.63,20.22c2.76,0.24,5.26,0.75,5.26,0.75
			S667.45,916.16,676.81,937.83z"/>
		<path class="st14" d="M639.67,857.18c0,0-0.87,12.06-0.9,23.41c-21.44-0.6-32.76-20.16-37.41-30.99L639.67,857.18z"/>
		<path class="st12" d="M597.41,845.43c0,0-11.23-17.75-13.93-32.92c-1.92-10.83,3.6-50.99,43.95-45.21c0,0,11.72,1.15,22.74,8.59
			c8.76,5.92,21.41,18.7,7.27,53.74l-3.67,11.84L597.41,845.43z"/>
		<path class="st13" d="M646.83,867.94c0,0-50.71,0.83-50.75-30.75c-0.03-31.59-6.6-52.75,25.77-54.63
			c32.38-1.87,38.68,10.17,41.26,20.72C665.69,813.82,660.02,866.91,646.83,867.94z"/>
		<path class="st12" d="M644.95,781.79c0,0-13.89,37.06-35.19,42.54c-21.31,5.48-30.55-0.23-30.55-0.23s16.35-12.98,19.74-35.65
			C598.95,788.45,634.48,764.15,644.95,781.79z"/>
		<path class="st12" d="M641.51,784.79c0,0,10.37,8.28,12.9,16.32c2.53,8.04,3.66,24.6,8.49,24.04c0,0,10.46-25.19-1.29-39.44
			C649.14,770.6,641.51,784.79,641.51,784.79z"/>
		<path class="st13" d="M471.97,1179.2l15.22,4.57c0,0,50.22-83.33,54.79-105.01c1.49-7.06,5.14-21.18,9.4-37.01
			c8.82-32.78,20.2-72.88,20.2-72.88l3.75-16.24l12.78-55.36c0,0-24.48,2.5-38.8,8.49c-4.74,1.98-8.36,4.34-9.62,7.11
			c-10.52,23.13-21.02,81.5-28.4,123.13c-4.11,23.21-7.25,41.22-8.89,45.03C497.84,1091.69,483.89,1150.29,471.97,1179.2z"/>
		<path class="st12" d="M643.44,786.05c0,0-9.89,38.81-36.78,51.23c0,0,26.89-23.84,29.17-49.46
			C638.11,762.21,643.44,786.05,643.44,786.05z"/>
		<path class="st4" d="M640.18,1004.27c2.15,52.41,9.98,104.3,32.8,100.96c27.97-4.08,35.25-30.19,36.74-49.59
			c0.92-12.08-0.41-21.56-0.41-21.56s-13.76-0.06-15.99-2.11c-10.57-9.77-7.43-105.54-12.66-115.48
			c-5.23-9.94-39.19-16.33-39.19-16.33S638.05,952.47,640.18,1004.27z"/>
		<path class="st16" d="M510.83,1248.16c0,0,19.96,6.96,49.36,11.56c36.41,5.7,87.3,7.74,132.76-11.56c0,0,3.74-76.43-7.02-116.27
			c-10.77-39.85-15.81-58.91-15.81-58.91s-43.15,12.22-86.97,2.74c-6.16-1.32-12.32-3.08-18.38-5.37c0,0-27.03,64.85-34.47,92.64
			C522.87,1190.79,510.83,1248.16,510.83,1248.16z"/>
		<path class="st4" d="M466.43,1101.74c0,13.17,13.43,21.26,27.84,25.19c13.86,3.79,28.62,3.74,33.23,0.65
			c7.97-5.34,20.94-64.69,24.73-82.75c0.68-3.27,1.07-5.19,1.07-5.19s10.35,24.7,10.68,27c0.15,1.04,0.27,2.46,0.37,3.72
			c0.1,1.52,0.17,2.77,0.17,2.77s56.17,28.36,105.35,2.31c0,0,19.99-115.53,11.31-135.42c-4.31-9.88-26.8-30.27-35.8-39.06
			c-2.02-1.98-1.82-5.89-1.04-9.47c0.65-3.03-2.07-5.68-5.07-4.91c-5.79,1.51-16.2,1.25-27.36-2.42
			c-5.56-1.81-11.29-4.47-16.72-8.17c-1.58-1.08-3.72-0.09-3.97,1.81c-0.85,6.89-2.93,19.47-6.73,19.47
			c-5.24-0.03-40.94,4.35-43.56,8.77c-0.91,1.54-10.2,22.55-21.92,50.38c0,0-0.01,0.02-0.02,0.07
			C496.99,1008.7,466.43,1084.9,466.43,1101.74z"/>
		<path class="st28" d="M553.31,1039.64c0,0,10.35,24.7,10.68,27c0.15,1.04,0.27,2.46,0.37,3.72c5,4.08,11.05,7.18,17.22,9.05
			c17.51,5.31,25.12-28.26,24.07-45.01c-1.05-16.75-25.81-64.55-34.06-65.54C563.34,967.88,553.31,1039.64,553.31,1039.64z"/>
		<path class="st29" d="M552.24,1044.84c0.68-3.27,1.07-5.19,1.07-5.19C552.76,1041.41,552.41,1043.14,552.24,1044.84z"/>
		<path class="st30" d="M434.25,1244.08c1.06-5.3,4.78-9.61,9.85-11.49c8.22-3.05,21.68-5.8,38.22-0.94
			c27.92,8.21,30.66,25.38,28.81,37.73c-1.85,12.34,3.63,32.02,2.83,46.02c-0.81,14-4.81,49.18-25.49,47.33
			c-20.68-1.85-87.34-19.77-87.34-19.77s-11.51-21.91,12.14-53.66C427.3,1270.48,432.41,1253.32,434.25,1244.08z"/>
		<g>
			<g>
				<path class="st31" d="M447.05,1227.9l5.53,0.49c0-0.01,0.64-3.83,3.17-6.23c1.96-1.84,4.65-2.52,8.02-1.97
					c3.19,0.51,5.48,1.97,6.64,4.33c1.64,3.31,0.73,7.58,0.72,7.62l5.39,1.25c0.07-0.29,1.63-7.22-1.2-13.04
					c-1.94-4.03-5.41-6.34-10.22-7.25c-4.96-0.8-9.14,0.41-12.46,3.59C448.08,1221.09,447.09,1227.62,447.05,1227.9z"/>
			</g>
			<path class="st10" d="M387.43,1339.84c0,0,66.66,17.96,87.36,19.76c20.68,1.89,24.71-33.29,25.46-47.33
				c0.82-13.96-4.64-33.65-2.82-46.03c0.37-2.34,0.59-4.93,0.42-7.54c-0.53-11.02-6.7-23.53-29.19-30.13
				c-16.59-4.89-30.01-2.1-38.26,0.95c-5.04,1.89-8.81,6.18-9.86,11.46c-0.24,1.08-0.46,2.39-0.76,3.69
				c-2.38,9.82-7.87,25.07-20.22,41.57C375.89,1317.94,387.43,1339.84,387.43,1339.84z"/>
			<path class="st32" d="M490.18,1315.22l-40.18-9.1c0,0-9.35,28.78,9.64,34.02C478.63,1345.38,486.51,1334.24,490.18,1315.22z"/>
			<path class="st31" d="M490.18,1315.22c0,0-9.27,8.93-21.79,5.78c-12.53-3.15-18.38-14.88-18.38-14.88L490.18,1315.22z"/>
			<path class="st32" d="M441.85,1304.28l-40.18-9.09c0,0-9.35,28.77,9.64,34.01C430.3,1334.45,438.17,1323.31,441.85,1304.28z"/>
			<path class="st31" d="M441.85,1304.28c0,0-9.27,8.94-21.79,5.79c-12.53-3.15-18.38-14.88-18.38-14.88L441.85,1304.28z"/>
			<path class="st17" d="M420.54,1240.97c-0.24,1.08-0.46,2.39-0.76,3.69c5.31,10.96,15.38,24.96,32.42,28.21
				c28.98,5.65,45.65-14.18,45.65-14.18c-0.53-11.02-6.7-23.53-29.19-30.13c-16.59-4.89-30.01-2.1-38.26,0.95
				C425.35,1231.4,421.58,1235.69,420.54,1240.97z"/>
			<path class="st33" d="M451.79,1278.95L451.79,1278.95c1.82,0.41,3.63-0.74,4.05-2.55l0.68-3c0.41-1.81-0.74-3.64-2.55-4.05l0,0
				c-1.81-0.41-3.63,0.74-4.04,2.55l-0.68,3C448.83,1276.72,449.98,1278.53,451.79,1278.95z"/>
		</g>
		<path class="st13" d="M473.05,1176.67c0,0-4.63,10.9-9.45,13.95c-4.82,3.05-9.4,10.35-10.4,16.24
			c-1.84,10.79,6.44,17.5,12.53,17.5c6.09,0,11.91-8.3,15.49-28.12c0.2-1.09,5.98-12.46,5.98-12.46L473.05,1176.67z"/>
		<g>
			<path class="st24" d="M624.04,1088.19c31.96,0,45.14-11,46.12-11.76l2.07-15.05c-0.31,0.23-43.2,25.98-109.57,1.32l1.41,11.4
				C589.58,1083.59,607.44,1088.19,624.04,1088.19z"/>
		</g>
		<path class="st13" d="M624.6,1598.99c0,0,2.39,7.93-0.19,13.95l30.35,18.53l35.74,9.3l10.52-5.45c0,0-53.26-27.05-55.9-68.32
			C643.07,1534.9,624.6,1598.99,624.6,1598.99z"/>
		<path class="st23" d="M650.71,1640.33c17.27,2.27,11.74,5.4,35.15,11.63c23.41,6.23,33.46,0.51,35.44-2.57
			c1.76-2.72-8.92-8.07-20.29-14.06l-0.2,0.19c0,0-17.17,4.32-36.03-2.5c-15.37-5.54-29.81-16.17-40.39-20.08
			c-1.59,3.38-3.2,6.86-3.85,10.62C618.69,1634.23,633.45,1638.07,650.71,1640.33z"/>
		<path class="st14" d="M493.82,1523.66c-8.91,4.63-3.42,17.65,4.62,31.64c8.04,13.99,2.63,11.68,11.21,32.42
			c8.59,20.73,18.45,24.91,21.83,24.64c3-0.24,0.93-11.11-1.06-22.85c-0.26-1.47-0.49-2.96-0.73-4.44
			c-2.11-13.29,3.45-25.08,6.86-38.69c3.24-12.9,24.69-36.96,24.69-36.96l-10.85-28.71c0,0-18.95,22.21-27.4,31.13
			c-4.97,5.24-12.94,7.35-19.19,8.68C500.41,1521.25,496.95,1522.03,493.82,1523.66z"/>
		<path class="st23" d="M498.44,1555.29c8.04,13.99,2.63,11.68,11.21,32.42c8.59,20.73,18.45,24.91,21.83,24.64
			c3-0.24,0.93-11.11-1.06-22.85l-0.25-0.04c0,0-12.83-10.21-18.43-27.93c-4.57-14.43-4.87-31.04-7.94-41.03
			c-3.39,0.74-6.85,1.51-9.99,3.14C484.91,1528.29,490.4,1541.3,498.44,1555.29z"/>
		<g>
			<polygon class="st12" points="782.22,954.4 781.48,969.31 780.48,988.93 779.67,1005.17 752.59,1005.17 751.73,988.93 
				750.66,969.31 749.86,954.4 			"/>
			<polygon class="st4" points="784.09,956.76 748.21,956.76 749.23,951.28 783.45,951.28 			"/>
			<polygon class="st4" points="769.66,951.28 778.02,949.33 779.17,951.28 			"/>
			<polygon class="st4" points="781.48,969.31 780.48,988.93 751.73,988.93 750.66,969.31 			"/>
		</g>
		<path class="st13" d="M781.48,969.31c0,0-7.33-5.55-8.49,1.95c-0.57,3.65,7.6,15.64,7.6,15.64
			C783.39,984.37,785.5,971.11,781.48,969.31z"/>
	</g>
</g>
</svg>
